<svg xmlns="http://www.w3.org/2000/svg" viewBox="0 0 512 512" fill="none">
  <defs>
    <linearGradient id="emerald-gradient" x1="0%" y1="0%" x2="100%" y2="100%">
      <stop offset="0%" style="stop-color:#10B981;stop-opacity:1" />
      <stop offset="100%" style="stop-color:#059669;stop-opacity:1" />
    </linearGradient>
  </defs>
  <!-- Ticket Shape -->
  <path d="M40 128C40 110.3 54.3 96 72 96H440C457.7 96 472 110.3 472 128V160C472 177.7 486.3 192 504 192V320C486.3 320 472 334.3 472 352V384C472 401.7 457.7 416 440 416H72C54.3 416 40 401.7 40 384V352C40 334.3 25.7 320 8 320V192C25.7 192 40 177.7 40 160V128Z" fill="url(#emerald-gradient)"/>
  <!-- Dashed Line -->
  <path d="M144 96V416" stroke="white" stroke-width="24" stroke-dasharray="40 20" stroke-linecap="round" opacity="0.3"/>
  <!-- Star Icon -->
  <path d="M308 160L334.6 213.9L394.1 222.5L351 264.5L361.2 323.8L308 295.8L254.8 323.8L264.9 264.5L221.9 222.5L281.4 213.9L308 160Z" fill="white"/>
</svg>
